HIERARCHY
ROOT Hips
{
	OFFSET 0.00000 0.00000 0.00000
	CHANNELS 6 Xposition Yposition Zposition Zrotation Yrotation Xrotation 
	JOINT LHipJoint
	{
		OFFSET 0 0 0
		CHANNELS 3 Zrotation Yrotation Xrotation
		JOINT LeftHip
		{
			OFFSET 1.53794 -1.55850 0.93568
			CHANNELS 3 Zrotation Yrotation Xrotation
			JOINT LeftKnee
			{
				OFFSET 2.28545 -6.27922 0.00000
				CHANNELS 3 Zrotation Yrotation Xrotation
				JOINT LeftAnkle
				{
					OFFSET 2.37329 -6.52057 0.00000
					CHANNELS 3 Zrotation Yrotation Xrotation
					JOINT LeftToe
					{
						OFFSET 0.14846 -0.40788 2.09160
						CHANNELS 3 Zrotation Yrotation Xrotation
						End Site
						{
							OFFSET 0.00000 -0.00000 1.07536
						}
					}
				}
			}
		}
	}
	JOINT RHipJoint
	{
		OFFSET 0 0 0
		CHANNELS 3 Zrotation Yrotation Xrotation
		JOINT RightHip
		{
			OFFSET -1.78290 -1.55850 0.93568
			CHANNELS 3 Zrotation Yrotation Xrotation
			JOINT RightKnee
			{
				OFFSET -2.24144 -6.15831 0.00000
				CHANNELS 3 Zrotation Yrotation Xrotation
				JOINT RightAnkle
				{
					OFFSET -2.35091 -6.45907 0.00000
					CHANNELS 3 Zrotation Yrotation Xrotation
					JOINT RightToe
					{
						OFFSET -0.14428 -0.39641 2.07944
						CHANNELS 3 Zrotation Yrotation Xrotation
						End Site
						{
							OFFSET -0.00000 -0.00000 1.06864
						}
					}
				}
			}
		}
	}
	JOINT lowerback
	{
		OFFSET 0 0 0
		CHANNELS 3 Zrotation Yrotation Xrotation
		JOINT Chest
		{
			OFFSET -0.08841 2.11430 -0.15818
			CHANNELS 3 Zrotation Yrotation Xrotation
			JOINT Chest2
			{
				OFFSET -0.00033 2.12605 -0.08097
				CHANNELS 3 Zrotation Yrotation Xrotation
				JOINT lowerneck
				{
					OFFSET 0 0 0
					CHANNELS 3 Zrotation Yrotation Xrotation
					JOINT Neck
					{
						OFFSET 0.04431 1.59447 0.43193
						CHANNELS 3 Zrotation Yrotation Xrotation
						JOINT Head
						{
							OFFSET 0.00455 1.62017 -0.58852
							CHANNELS 3 Zrotation Yrotation Xrotation
							End Site
							{
								OFFSET -0.00920 1.72955 -0.25850
							}
						}
					}
				}
				JOINT LeftCollar
				{
					OFFSET 0 0 0
					CHANNELS 3 Zrotation Yrotation Xrotation
					JOINT LeftShoulder
					{
						OFFSET 2.86490 1.49927 -0.33774
CHANNELS 3 Zrotation Xrotation Yrotation
						JOINT LeftElbow
						{
OFFSET 0 -4.874080 0.000000
CHANNELS 3 Zrotation Xrotation Yrotation
							JOINT LeftWrist
							{
OFFSET 0 -2.767290 0.000000
CHANNELS 3 Zrotation Xrotation Yrotation
								JOINT lhand
								{
									OFFSET 0 0 0
CHANNELS 3 Zrotation Xrotation Yrotation
									JOINT LFingers
									{
OFFSET 0 -0.989220 0.000000
CHANNELS 3 Zrotation Xrotation Yrotation
										End Site
										{
OFFSET 0 -0.797530 0.000000
										}
									}
								}
								JOINT LThumb
								{
OFFSET 0 0.000000 0.000000
CHANNELS 3 Zrotation Xrotation Yrotation
									End Site
									{
OFFSET 0 -0.809720 0.809720
									}
								}
							}
						}
					}
				}
				JOINT RightCollar
				{
					OFFSET 0 0 0
					CHANNELS 3 Zrotation Yrotation Xrotation
					JOINT RightShoulder
					{
						OFFSET -2.94414 1.45463 -0.25291
CHANNELS 3 Zrotation Xrotation Yrotation
						JOINT RightElbow
						{
OFFSET 0 -4.714040 0.000000
CHANNELS 3 Zrotation Xrotation Yrotation
							JOINT RightWrist
							{
OFFSET 0 -2.834680 0.000000
CHANNELS 3 Zrotation Xrotation Yrotation
								JOINT rhand
								{
									OFFSET 0 0 0
CHANNELS 3 Zrotation Xrotation Yrotation
									JOINT RFingers
									{
OFFSET 0 -0.868200 0.000000
CHANNELS 3 Zrotation Xrotation Yrotation
										End Site
										{
OFFSET 0 -0.699960 0.000000
										}
									}
								}
								JOINT RThumb
								{
OFFSET 0 0.000000 0.000000
CHANNELS 3 Zrotation Xrotation Yrotation
									End Site
									{
OFFSET 0 -0.710650 0.710650
									}
								}
							}
						}
					}
				}
			}
		}
	}
}
MOTION
Frames: 12
Frame Time: 0.008333333333333333
1.022200 15.988400 34.844800 -175.961000 -4.287400 -174.759000 0.000000 0.000000 0.000000 -15.618400 -13.410500 -33.824800 2.524200 9.881700 28.594500 1.300300 10.872800 20.646700 0.371500 -3.915200 -10.838100 0.000000 0.000000 0.000000 28.359900 -5.086300 1.383900 -5.345800 -13.762900 42.296000 0.471600 -26.639500 15.778500 -0.825700 5.797400 -16.197600 1.102100 5.724000 -3.407700 -1.156300 7.613600 0.579200 -1.341200 3.821000 2.795300 -0.989800 -2.199400 -32.593500 2.298100 -8.504200 43.866100 -1.635500 -3.704500 26.701500 -0.000000 0.000000 0.000000 26.307700 35.708600 -51.104600 91.300800 -59.993600 61.126500 13.583400 19.329000 -5.033900 0.000000 0.000000 0.000000 -7.125000 0.000000 0.000000 -10.837200 34.989500 -2.704400 -0.000000 0.000000 0.000000 -4.613100 13.713600 45.101600 -74.928700 -59.124100 -46.986200 -9.853000 10.975800 1.998100 0.000000 0.000000 0.000000 7.125000 0.000000 -0.000000 13.367900 31.817700 4.417000
1.012596 15.871486 34.556597 -175.918082 -4.414403 -175.485030 0.000000 0.000000 0.000000 -16.289130 -12.521840 -33.040950 2.913730 10.551929 30.785382 0.761237 11.133467 16.274953 0.389376 -4.005502 -11.092350 0.000000 0.000000 0.000000 28.035753 -5.602011 0.361980 -6.359063 -14.762106 46.396511 0.856147 -27.383171 13.779336 -0.851073 5.881993 -16.442813 1.200881 5.561409 -2.954538 -1.207902 7.396681 0.732633 -1.499258 3.715931 2.711955 -1.278499 -2.289187 -32.422726 2.656538 -8.711426 43.840549 -1.429983 -3.800777 26.694323 0.000000 0.000000 0.000000 26.167751 35.335068 -51.171072 91.222432 -59.994324 61.058611 14.116674 19.175223 -5.449997 0.000000 0.000000 0.000000 -7.125000 0.000000 0.000000 -10.464066 35.436177 -2.492859 0.000000 0.000000 0.000000 -4.114620 14.375915 44.359463 -73.802657 -58.984147 -46.020587 -10.127449 11.432098 2.771172 0.000000 0.000000 0.000000 7.125000 0.000000 0.000000 13.269577 32.590214 4.129088
1.001678 15.760809 34.276290 -176.079689 -4.695607 -176.172052 0.000000 0.000000 0.000000 -17.089712 -12.138052 -31.963258 3.315112 11.185389 32.911162 0.266381 12.268923 11.867187 0.305131 -3.537291 -9.779621 0.000000 0.000000 0.000000 27.493483 -6.050228 -0.766346 -7.414042 -15.662746 50.409894 1.184627 -27.807144 11.794478 -0.758899 5.562212 -15.519693 0.951551 5.248751 -2.564078 -1.137549 6.987439 0.962604 -1.343134 3.507608 2.675666 -1.198268 -2.055473 -32.203923 2.799382 -8.568445 43.959166 -1.322471 -3.752529 26.749275 0.000000 0.000000 0.000000 25.391075 34.929430 -50.738832 90.769421 -59.997012 60.666335 14.457985 19.543972 -5.170543 0.000000 0.000000 0.000000 -7.125000 0.000000 0.000000 -10.141844 35.169589 -2.481026 0.000000 0.000000 0.000000 -3.937359 14.828264 43.551527 -72.017481 -58.739433 -44.492931 -10.386279 12.229346 3.068488 0.000000 0.000000 0.000000 7.125000 0.000000 0.000000 13.110463 32.893380 3.978909
0.988746 15.681695 34.003422 -176.515841 -4.961105 -176.860038 0.000000 0.000000 0.000000 -17.866554 -12.871756 -30.815347 3.701668 11.749087 34.854487 -0.029413 14.358699 9.739973 0.185118 -2.758787 -7.608599 0.000000 0.000000 0.000000 26.612110 -6.260274 -1.988976 -8.495460 -16.461634 54.312534 1.344647 -27.447142 10.106381 -0.828844 5.808297 -16.229325 0.591346 4.938807 -1.982664 -1.245505 6.582788 1.258854 -1.317629 3.298950 2.613363 -0.989504 -1.875739 -32.110146 2.986458 -8.463162 43.818145 -1.203515 -3.663064 26.545274 0.000000 0.000000 0.000000 24.534491 34.023059 -50.278833 89.669386 -59.999103 59.713662 15.095060 20.281771 -5.164885 0.000000 0.000000 0.000000 -7.125000 0.000000 0.000000 -9.618148 35.194530 -2.344144 0.000000 0.000000 0.000000 -3.401618 15.193892 42.523563 -69.948563 -58.421653 -42.727310 -10.875495 12.907877 3.354984 0.000000 0.000000 0.000000 7.125000 0.000000 0.000000 12.765330 33.195308 3.774354
0.975957 15.582818 33.736967 -177.015179 -5.179803 -177.502623 0.000000 0.000000 0.000000 -18.832617 -13.198370 -29.614459 4.066491 12.245663 36.610648 -0.381875 16.294701 7.034313 0.111697 -2.136168 -5.882845 0.000000 0.000000 0.000000 25.639174 -6.396355 -3.249598 -9.642346 -17.192787 58.270535 1.466211 -27.096843 8.618815 -0.838087 5.839657 -16.319906 0.157776 4.661190 -1.415901 -1.381393 6.214758 1.525687 -1.273356 3.104880 2.528148 -0.911545 -1.721173 -31.964115 3.227348 -8.400139 43.752616 -1.048687 -3.613654 26.434487 0.000000 0.000000 0.000000 23.788856 33.093814 -49.957049 88.712813 -59.992883 58.885313 15.555398 20.693584 -5.326624 0.000000 0.000000 0.000000 -7.125000 0.000000 0.000000 -9.262425 35.382138 -2.212881 0.000000 0.000000 0.000000 -2.913345 15.540258 41.510363 -67.871114 -58.061625 -40.961038 -11.351991 13.603013 3.847807 0.000000 0.000000 0.000000 7.125000 0.000000 0.000000 12.461101 33.703661 3.523824
0.963217 15.488766 33.480891 -177.743805 -5.339384 -178.090783 0.000000 0.000000 0.000000 -20.025695 -13.537858 -28.343002 4.388777 12.658531 38.106514 -0.714213 18.189260 4.700694 0.058994 -1.547859 -4.258023 0.000000 0.000000 0.000000 24.391889 -6.322486 -4.668335 -10.846251 -17.848119 62.267403 1.506114 -26.431453 7.324416 -0.857188 5.904013 -16.506199 -0.490508 4.411249 -0.820349 -1.581293 5.876693 1.821100 -1.171473 2.918302 2.445379 -0.894317 -1.600720 -31.855574 3.481017 -8.344101 43.659949 -0.876652 -3.571573 26.317890 0.000000 0.000000 0.000000 23.004248 31.918442 -49.699447 87.543327 -59.975988 57.872650 15.980189 21.128351 -5.670644 0.000000 0.000000 0.000000 -7.125000 0.000000 0.000000 -8.960159 35.756057 -2.056788 0.000000 0.000000 0.000000 -2.423380 15.775848 40.432164 -65.566274 -57.613438 -39.010015 -11.840752 14.210696 4.476381 0.000000 0.000000 0.000000 7.125000 0.000000 0.000000 12.166978 34.350845 3.242423
0.951974 15.399620 33.236316 -178.659140 -5.380520 -178.618327 0.000000 0.000000 0.000000 -21.388447 -13.698659 -27.075018 4.667820 12.998410 39.364566 -1.020965 19.853283 2.612960 0.029463 -1.094980 -3.010212 0.000000 0.000000 0.000000 22.924966 -5.990511 -6.254466 -12.092349 -18.419918 66.270782 1.491365 -25.552497 6.160224 -0.890204 6.013651 -16.824165 -1.337538 4.221837 -0.230000 -1.816776 5.607160 2.146505 -0.988430 2.757217 2.386493 -0.963088 -1.529570 -31.802994 3.723693 -8.291518 43.549029 -0.696401 -3.541830 26.212014 0.000000 0.000000 0.000000 22.200771 30.519471 -49.540947 86.223355 -59.944696 56.729980 16.349393 21.575966 -6.201059 0.000000 0.000000 0.000000 -7.125000 0.000000 0.000000 -8.729015 36.320645 -1.881096 0.000000 0.000000 0.000000 -1.983551 15.902055 39.286598 -63.068314 -57.066890 -36.906950 -12.344663 14.786191 5.215514 0.000000 0.000000 0.000000 7.125000 0.000000 0.000000 11.877523 35.112990 2.937673
0.943215 15.316029 33.003458 -179.642139 -5.283705 -179.078922 0.000000 0.000000 0.000000 -22.767953 -13.573700 -25.895653 4.910185 13.281219 40.431752 -1.285155 21.163919 0.713820 0.016666 -0.830236 -2.281837 0.000000 0.000000 0.000000 21.389620 -5.386038 -8.000245 -13.338634 -18.894063 70.167412 1.457391 -24.607960 5.018227 -0.939696 6.173939 -17.290049 -2.275061 4.100568 0.332787 -2.051965 5.413851 2.479073 -0.748177 2.627104 2.347910 -1.094042 -1.496641 -31.803346 3.925096 -8.227578 43.434067 -0.526339 -3.519538 26.122932 0.000000 0.000000 0.000000 21.398560 28.989512 -49.463111 84.831723 -59.897672 55.525717 16.650293 22.087754 -6.820702 0.000000 0.000000 0.000000 -7.125000 0.000000 0.000000 -8.567595 36.975710 -1.706974 0.000000 0.000000 0.000000 -1.617819 15.965604 38.072450 -60.467184 -56.427080 -34.731419 -12.808501 15.368072 6.015588 0.000000 0.000000 0.000000 7.125000 0.000000 0.000000 11.631114 35.938464 2.635816
0.937383 15.240815 32.780334 -180.514907 -5.038356 -179.482439 0.000000 0.000000 0.000000 -23.944128 -13.145546 -24.904098 5.137414 13.536430 41.412170 -1.494902 22.110548 -0.991625 0.013332 -0.744538 -2.046242 0.000000 0.000000 0.000000 20.013934 -4.503257 -9.863398 -14.530691 -19.263252 73.815669 1.432903 -23.752770 3.830181 -1.000936 6.366134 -17.850594 -3.129875 4.045318 0.828567 -2.239979 5.298427 2.808920 -0.497581 2.533498 2.351299 -1.213932 -1.476058 -31.849381 4.043973 -8.128077 43.312082 -0.396343 -3.487733 26.028525 0.000000 0.000000 0.000000 20.611188 27.411883 -49.440811 83.478996 -59.838034 54.355763 16.868784 22.620016 -7.401241 0.000000 0.000000 0.000000 -7.125000 0.000000 0.000000 -8.470637 37.587505 -1.559075 0.000000 0.000000 0.000000 -1.331097 16.005065 36.779225 -57.862077 -55.708539 -32.569344 -13.236592 16.020053 6.721919 0.000000 0.000000 0.000000 7.125000 0.000000 0.000000 11.398686 36.671831 2.373214
0.934008 15.176581 32.564461 -181.120225 -4.691398 -179.812865 0.000000 0.000000 0.000000 -24.742974 -12.496346 -24.170336 5.372591 13.791338 42.408300 -1.655236 22.770136 -2.553944 0.014735 -0.784730 -2.156759 0.000000 0.000000 0.000000 19.004256 -3.378672 -11.828407 -15.614397 -19.531603 77.080148 1.432312 -23.108968 2.600236 -1.071608 6.580566 -18.478529 -3.745068 4.015379 1.203059 -2.339544 5.218765 3.122695 -0.278730 2.461431 2.421662 -1.301486 -1.432917 -31.922854 4.083056 -7.957732 43.195120 -0.297714 -3.433097 25.930502 0.000000 0.000000 0.000000 19.814796 25.871799 -49.401605 82.266796 -59.772685 53.307979 16.972505 23.072891 -7.778109 0.000000 0.000000 0.000000 -7.125000 0.000000 0.000000 -8.440756 37.982829 -1.470788 0.000000 0.000000 0.000000 -1.137128 16.039129 35.441449 -55.321419 -54.927250 -30.479168 -13.560091 16.740646 7.174847 0.000000 0.000000 0.000000 7.125000 0.000000 0.000000 11.208862 37.147099 2.199518
0.932425 15.125195 32.354362 -181.375411 -4.317328 -180.053472 0.000000 0.000000 0.000000 -25.087281 -11.743251 -23.701915 5.629363 14.058986 43.474882 -1.769035 23.196740 -3.975676 0.020878 -0.930488 -2.557528 0.000000 0.000000 0.000000 18.468814 -2.076387 -13.879486 -16.540819 -19.709885 79.838550 1.458234 -22.730511 1.369483 -1.138452 6.775810 -19.052757 -4.036746 3.964425 1.437989 -2.330162 5.123581 3.405040 -0.116289 2.390693 2.557861 -1.323554 -1.343073 -31.999424 4.037838 -7.717515 43.113151 -0.241307 -3.354812 25.849065 0.000000 0.000000 0.000000 19.002097 24.432079 -49.327153 81.254834 -59.708920 52.433871 16.997127 23.352685 -7.878963 0.000000 0.000000 0.000000 -7.125000 0.000000 0.000000 -8.435606 38.088694 -1.447869 0.000000 0.000000 0.000000 -1.032964 16.107354 34.062837 -52.983060 -54.128150 -28.574808 -13.661947 17.461218 7.275348 0.000000 0.000000 0.000000 7.125000 0.000000 0.000000 11.141733 37.254675 2.156008
0.931242 15.086297 32.149062 -181.362068 -3.991635 -180.215457 0.000000 0.000000 0.000000 -25.097370 -11.010639 -23.405354 5.900043 14.330151 44.577915 -1.844614 23.462410 -5.200484 0.032694 -1.162990 -3.197525 0.000000 0.000000 0.000000 18.287262 -0.697675 -15.982201 -17.294968 -19.822513 82.068270 1.505600 -22.581439 0.150526 -1.196143 6.939343 -19.535948 -4.062231 3.861539 1.568662 -2.247787 4.971664 3.656919 -0.018359 2.300640 2.739408 -1.296467 -1.203071 -32.056688 3.943920 -7.428629 43.084759 -0.210766 -3.262360 25.804751 0.000000 0.000000 0.000000 18.201195 23.106698 -49.225448 80.447892 -59.652207 51.737294 16.975172 23.415816 -7.704763 0.000000 0.000000 0.000000 -7.125000 0.000000 0.000000 -8.427253 37.907464 -1.484151 0.000000 0.000000 0.000000 -1.013626 16.204495 32.743661 -50.839402 -53.324892 -26.846916 -13.666784 18.021705 7.053348 0.000000 0.000000 0.000000 7.125000 0.000000 0.000000 11.098671 37.031225 2.209257
